<svg xmlns="http://www.w3.org/2000/svg" xmlns:xlink="http://www.w3.org/1999/xlink" width="500" zoomAndPan="magnify" viewBox="0 0 375 374.999991" height="500" preserveAspectRatio="xMidYMid meet" version="1.0"><defs><g/><clipPath id="fcca2d0b92"><path d="M 214.503906 88.730469 L 244.5 88.730469 L 244.5 117.980469 L 214.503906 117.980469 Z M 214.503906 88.730469 " clip-rule="nonzero"/></clipPath></defs><path fill="#231f20" d="M 187.371094 0 L 0 0 L 0 187.371094 C 0 83.921875 83.921875 0 187.371094 0 Z M 187.371094 0 " fill-opacity="1" fill-rule="nonzero"/><path fill="#231f20" d="M 187.371094 374.742188 L 374.742188 374.742188 L 374.742188 187.371094 C 374.742188 290.882812 290.820312 374.742188 187.371094 374.742188 Z M 187.371094 374.742188 " fill-opacity="1" fill-rule="nonzero"/><path fill="#231f20" d="M 0 187.371094 L 0 374.742188 L 187.371094 374.742188 C 83.921875 374.742188 0 290.882812 0 187.371094 Z M 0 187.371094 " fill-opacity="1" fill-rule="nonzero"/><path fill="#231f20" d="M 187.371094 0 C 290.882812 0 374.742188 83.921875 374.742188 187.371094 L 374.742188 0 Z M 187.371094 0 " fill-opacity="1" fill-rule="nonzero"/><g fill="#000000" fill-opacity="1"><g transform="translate(22.580304, 242.39935)"><g><path d="M 65.96875 -114.34375 L 92.34375 -114.34375 L 92.34375 -43.96875 C 92.34375 -14.65625 78.566406 0 51.015625 0 C 22.867188 0 8.796875 -14.65625 8.796875 -43.96875 L 8.796875 -114.34375 L 35.1875 -114.34375 L 35.1875 -43.96875 C 35.1875 -32.25 40.460938 -26.390625 51.015625 -26.390625 C 60.984375 -26.390625 65.96875 -32.25 65.96875 -43.96875 Z M 65.96875 -114.34375 "/></g></g></g><g fill="#000000" fill-opacity="1"><g transform="translate(114.928689, 242.39935)"><g><path d="M 65.96875 -70.359375 C 65.96875 -82.085938 60.984375 -87.953125 51.015625 -87.953125 C 40.460938 -87.953125 35.1875 -82.085938 35.1875 -70.359375 L 35.1875 0 L 8.796875 0 L 8.796875 -70.359375 C 8.796875 -99.679688 22.867188 -114.34375 51.015625 -114.34375 C 78.566406 -114.34375 92.34375 -99.679688 92.34375 -70.359375 L 92.34375 0 L 65.96875 0 Z M 65.96875 -70.359375 "/></g></g></g><g fill="#000000" fill-opacity="1"><g transform="translate(207.277074, 242.39935)"><g><path d="M 35.1875 -114.34375 L 35.1875 0 L 8.796875 0 L 8.796875 -114.34375 Z M 35.1875 -114.34375 "/></g></g></g><g fill="#000000" fill-opacity="1"><g transform="translate(242.457411, 242.39935)"><g><path d="M 59.8125 -87.953125 C 43.394531 -87.953125 35.1875 -77.691406 35.1875 -57.171875 C 35.1875 -36.648438 43.394531 -26.390625 59.8125 -26.390625 C 75.632812 -26.390625 83.546875 -36.648438 83.546875 -57.171875 C 83.546875 -77.691406 75.632812 -87.953125 59.8125 -87.953125 Z M 59.8125 -114.34375 C 93.226562 -114.34375 109.9375 -95.285156 109.9375 -57.171875 C 109.9375 -19.054688 93.226562 0 59.8125 0 C 25.800781 0 8.796875 -19.054688 8.796875 -57.171875 C 8.796875 -95.285156 25.800781 -114.34375 59.8125 -114.34375 Z M 65.171875 -17.59375 L 95.953125 -17.59375 L 109.140625 9.671875 L 87.15625 21.984375 Z M 65.171875 -17.59375 "/></g></g></g><g clip-path="url(#fcca2d0b92)"><path fill="#000000" d="M 230.503906 88.96875 C 230.949219 89.191406 231.308594 89.558594 231.527344 90.011719 L 234.941406 97.042969 L 242.566406 98.167969 C 243.789062 98.351562 244.640625 99.496094 244.484375 100.738281 L 244.476562 100.777344 C 244.40625 101.277344 244.175781 101.738281 243.820312 102.089844 L 238.300781 107.5625 L 239.605469 115.292969 C 239.8125 116.53125 239.003906 117.707031 237.792969 117.941406 L 237.757812 117.945312 C 237.269531 118.03125 236.765625 117.949219 236.324219 117.714844 L 229.503906 114.066406 L 222.679688 117.714844 C 221.585938 118.300781 220.238281 117.882812 219.644531 116.785156 L 219.628906 116.75 C 219.398438 116.304688 219.316406 115.789062 219.402344 115.292969 L 220.703125 107.566406 L 215.183594 102.089844 C 214.300781 101.214844 214.273438 99.777344 215.117188 98.867188 L 215.144531 98.839844 C 215.492188 98.476562 215.945312 98.242188 216.4375 98.167969 L 224.066406 97.042969 L 227.476562 90.011719 C 228.027344 88.871094 229.382812 88.40625 230.503906 88.96875 Z M 230.503906 88.96875 " fill-opacity="1" fill-rule="nonzero"/></g><path fill="#000000" d="M 86.710938 250.742188 L 288.265625 250.742188 C 291.359375 250.742188 293.867188 253.25 293.867188 256.347656 L 293.867188 277.152344 C 293.867188 280.246094 291.359375 282.757812 288.265625 282.757812 L 86.710938 282.757812 C 83.617188 282.757812 81.109375 280.246094 81.109375 277.152344 L 81.109375 256.347656 C 81.109375 253.25 83.617188 250.742188 86.710938 250.742188 Z M 86.710938 250.742188 " fill-opacity="1" fill-rule="nonzero"/><g fill="#ffffff" fill-opacity="1"><g transform="translate(89.131804, 272.747145)"><g><path d="M 4.625 0 L 4.625 -11.953125 L 0.703125 -11.953125 L 0.703125 -14.03125 L 10.84375 -14.03125 L 10.84375 -11.953125 L 6.796875 -11.953125 L 6.796875 0 Z M 4.625 0 "/></g></g></g><g fill="#ffffff" fill-opacity="1"><g transform="translate(100.668866, 272.747145)"><g><path d="M 1.96875 -14.03125 L 10.8125 -14.03125 L 10.8125 -11.953125 L 4.125 -11.953125 L 4.125 -8.234375 L 9.703125 -8.234375 L 9.703125 -6.15625 L 4.125 -6.15625 L 4.125 -2.078125 L 10.8125 -2.078125 L 10.8125 0 L 1.96875 0 Z M 1.96875 -14.03125 "/></g></g></g><g fill="#ffffff" fill-opacity="1"><g transform="translate(112.967063, 272.747145)"><g/></g></g><g fill="#ffffff" fill-opacity="1"><g transform="translate(118.575348, 272.747145)"><g><path d="M 4.125 -14.03125 L 4.125 -8.03125 L 11.125 -8.03125 L 11.125 -14.03125 L 13.296875 -14.03125 L 13.296875 0 L 11.125 0 L 11.125 -5.953125 L 4.125 -5.953125 L 4.125 0 L 1.96875 0 L 1.96875 -14.03125 Z M 4.125 -14.03125 "/></g></g></g><g fill="#ffffff" fill-opacity="1"><g transform="translate(133.817881, 272.747145)"><g><path d="M 1.96875 -14.03125 L 10.8125 -14.03125 L 10.8125 -11.953125 L 4.125 -11.953125 L 4.125 -8.234375 L 9.703125 -8.234375 L 9.703125 -6.15625 L 4.125 -6.15625 L 4.125 -2.078125 L 10.8125 -2.078125 L 10.8125 0 L 1.96875 0 Z M 1.96875 -14.03125 "/></g></g></g><g fill="#ffffff" fill-opacity="1"><g transform="translate(146.116078, 272.747145)"><g><path d="M 12.375 -9.5625 C 12.375 -8.71875 12.117188 -7.9375 11.609375 -7.21875 C 11.109375 -6.5 10.457031 -5.960938 9.65625 -5.609375 L 12.9375 0.015625 L 10.296875 0 L 7.34375 -5.265625 L 4.125 -5.265625 L 4.125 0 L 1.96875 0 L 1.96875 -14.03125 L 7.9375 -14.03125 C 8.675781 -14.03125 9.378906 -13.847656 10.046875 -13.484375 C 10.722656 -13.128906 11.28125 -12.617188 11.71875 -11.953125 C 12.15625 -11.285156 12.375 -10.488281 12.375 -9.5625 Z M 7.578125 -11.953125 L 4.125 -11.953125 L 4.125 -7.359375 L 8.140625 -7.359375 C 8.773438 -7.359375 9.269531 -7.582031 9.625 -8.03125 C 9.976562 -8.488281 10.15625 -9.003906 10.15625 -9.578125 C 10.15625 -10.316406 9.898438 -10.894531 9.390625 -11.3125 C 8.890625 -11.738281 8.285156 -11.953125 7.578125 -11.953125 Z M 7.578125 -11.953125 "/></g></g></g><g fill="#ffffff" fill-opacity="1"><g transform="translate(160.036656, 272.747145)"><g><path d="M 1.96875 -14.03125 L 10.8125 -14.03125 L 10.8125 -11.953125 L 4.125 -11.953125 L 4.125 -8.234375 L 9.703125 -8.234375 L 9.703125 -6.15625 L 4.125 -6.15625 L 4.125 -2.078125 L 10.8125 -2.078125 L 10.8125 0 L 1.96875 0 Z M 1.96875 -14.03125 "/></g></g></g><g fill="#ffffff" fill-opacity="1"><g transform="translate(172.334853, 272.747145)"><g><path d="M 11.765625 -14.03125 L 13.9375 -14.03125 L 13.9375 0 L 11.953125 0 L 3.78125 -10.703125 C 3.863281 -9.890625 3.941406 -9.078125 4.015625 -8.265625 C 4.085938 -7.460938 4.125 -6.648438 4.125 -5.828125 L 4.125 0 L 1.96875 0 L 1.96875 -14.03125 L 3.90625 -14.03125 L 12.0625 -3.109375 C 11.945312 -4.085938 11.867188 -5.140625 11.828125 -6.265625 C 11.785156 -7.390625 11.765625 -8.441406 11.765625 -9.421875 Z M 11.765625 -14.03125 "/></g></g></g><g fill="#ffffff" fill-opacity="1"><g transform="translate(188.218345, 272.747145)"><g><path d="M 8.21875 -14.15625 C 9.019531 -14.15625 9.757812 -14.039062 10.4375 -13.8125 C 11.125 -13.582031 11.726562 -13.285156 12.25 -12.921875 C 12.769531 -12.566406 13.175781 -12.179688 13.46875 -11.765625 L 12.0625 -10.296875 C 11.53125 -10.804688 10.941406 -11.222656 10.296875 -11.546875 C 9.660156 -11.878906 8.96875 -12.046875 8.21875 -12.046875 C 7.269531 -12.046875 6.410156 -11.820312 5.640625 -11.375 C 4.867188 -10.9375 4.265625 -10.335938 3.828125 -9.578125 C 3.390625 -8.828125 3.171875 -7.972656 3.171875 -7.015625 C 3.171875 -6.066406 3.40625 -5.203125 3.875 -4.421875 C 4.34375 -3.648438 4.96875 -3.035156 5.75 -2.578125 C 6.53125 -2.128906 7.378906 -1.90625 8.296875 -1.90625 C 8.960938 -1.90625 9.585938 -2.035156 10.171875 -2.296875 C 10.765625 -2.554688 11.242188 -2.910156 11.609375 -3.359375 C 11.984375 -3.816406 12.171875 -4.34375 12.171875 -4.9375 C 12.171875 -5 12.171875 -5.035156 12.171875 -5.046875 L 8.171875 -5.046875 L 8.171875 -7.203125 L 14.390625 -7.203125 C 14.421875 -6.992188 14.445312 -6.789062 14.46875 -6.59375 C 14.488281 -6.394531 14.5 -6.195312 14.5 -6 C 14.5 -5.257812 14.382812 -4.535156 14.15625 -3.828125 C 13.9375 -3.117188 13.59375 -2.503906 13.125 -1.984375 C 12.59375 -1.316406 11.898438 -0.785156 11.046875 -0.390625 C 10.203125 0.00390625 9.265625 0.203125 8.234375 0.203125 C 7.222656 0.203125 6.273438 0.0195312 5.390625 -0.34375 C 4.503906 -0.71875 3.726562 -1.226562 3.0625 -1.875 C 2.394531 -2.53125 1.878906 -3.296875 1.515625 -4.171875 C 1.148438 -5.054688 0.96875 -6.003906 0.96875 -7.015625 C 0.96875 -8.035156 1.148438 -8.972656 1.515625 -9.828125 C 1.878906 -10.691406 2.390625 -11.445312 3.046875 -12.09375 C 3.710938 -12.75 4.488281 -13.253906 5.375 -13.609375 C 6.257812 -13.972656 7.207031 -14.15625 8.21875 -14.15625 Z M 8.21875 -14.15625 "/></g></g></g><g fill="#ffffff" fill-opacity="1"><g transform="translate(203.561036, 272.747145)"><g><path d="M 11.21875 0 L 9.90625 -3.484375 L 4.03125 -3.484375 L 2.703125 0 L 0.5 0 L 5.9375 -14.03125 L 8.140625 -14.03125 L 13.53125 0 Z M 5.890625 -8.375 L 4.828125 -5.578125 L 9.125 -5.578125 L 8.015625 -8.453125 C 7.847656 -8.921875 7.675781 -9.425781 7.5 -9.96875 C 7.320312 -10.507812 7.144531 -11.054688 6.96875 -11.609375 C 6.789062 -11.046875 6.609375 -10.484375 6.421875 -9.921875 C 6.242188 -9.359375 6.066406 -8.84375 5.890625 -8.375 Z M 5.890625 -8.375 "/></g></g></g><g fill="#ffffff" fill-opacity="1"><g transform="translate(217.581772, 272.747145)"><g/></g></g><g fill="#ffffff" fill-opacity="1"><g transform="translate(223.190058, 272.747145)"><g><path d="M 19.484375 -14.03125 L 15.015625 0 L 13.515625 0 L 9.90625 -8.515625 L 6.421875 0 L 4.953125 0 L 0.484375 -14.03125 L 2.78125 -14.03125 L 5.5 -5.25 C 5.59375 -4.925781 5.675781 -4.617188 5.75 -4.328125 C 5.820312 -4.035156 5.882812 -3.753906 5.9375 -3.484375 C 6 -3.753906 6.078125 -4.035156 6.171875 -4.328125 C 6.265625 -4.617188 6.378906 -4.929688 6.515625 -5.265625 L 9.046875 -11.609375 L 10.984375 -11.609375 L 13.4375 -5.265625 C 13.582031 -4.910156 13.703125 -4.585938 13.796875 -4.296875 C 13.890625 -4.015625 13.96875 -3.753906 14.03125 -3.515625 C 14.070312 -3.753906 14.128906 -4.019531 14.203125 -4.3125 C 14.273438 -4.601562 14.375 -4.9375 14.5 -5.3125 L 17.15625 -14.03125 Z M 19.484375 -14.03125 "/></g></g></g><g fill="#ffffff" fill-opacity="1"><g transform="translate(243.13957, 272.747145)"><g><path d="M 11.21875 0 L 9.90625 -3.484375 L 4.03125 -3.484375 L 2.703125 0 L 0.5 0 L 5.9375 -14.03125 L 8.140625 -14.03125 L 13.53125 0 Z M 5.890625 -8.375 L 4.828125 -5.578125 L 9.125 -5.578125 L 8.015625 -8.453125 C 7.847656 -8.921875 7.675781 -9.425781 7.5 -9.96875 C 7.320312 -10.507812 7.144531 -11.054688 6.96875 -11.609375 C 6.789062 -11.046875 6.609375 -10.484375 6.421875 -9.921875 C 6.242188 -9.359375 6.066406 -8.84375 5.890625 -8.375 Z M 5.890625 -8.375 "/></g></g></g><g fill="#ffffff" fill-opacity="1"><g transform="translate(257.160307, 272.747145)"><g><path d="M 4.125 0 L 1.96875 0 L 1.96875 -14.03125 L 4.125 -14.03125 L 4.125 -7.15625 L 11 -14.03125 L 13.859375 -14.03125 L 7.796875 -8.15625 L 13.96875 0 L 11.265625 0 L 6.28125 -6.671875 L 4.125 -4.59375 Z M 4.125 0 "/></g></g></g><g fill="#ffffff" fill-opacity="1"><g transform="translate(271.821979, 272.747145)"><g><path d="M 11.21875 0 L 9.90625 -3.484375 L 4.03125 -3.484375 L 2.703125 0 L 0.5 0 L 5.9375 -14.03125 L 8.140625 -14.03125 L 13.53125 0 Z M 5.890625 -8.375 L 4.828125 -5.578125 L 9.125 -5.578125 L 8.015625 -8.453125 C 7.847656 -8.921875 7.675781 -9.425781 7.5 -9.96875 C 7.320312 -10.507812 7.144531 -11.054688 6.96875 -11.609375 C 6.789062 -11.046875 6.609375 -10.484375 6.421875 -9.921875 C 6.242188 -9.359375 6.066406 -8.84375 5.890625 -8.375 Z M 5.890625 -8.375 "/></g></g></g></svg>