<?xml version="1.0" encoding="UTF-8" standalone="no"?>
<svg
   width="500"
   zoomAndPan="magnify"
   viewBox="0 0 375 374.999991"
   height="500"
   preserveAspectRatio="xMidYMid meet"
   version="1.0"
   id="svg59"
   sodipodi:docname="Primary-coloured.svg"
   inkscape:version="1.4 (86a8ad7, 2024-10-11)"
   inkscape:export-filename="PNG\Primary-Background.png"
   inkscape:export-xdpi="196.608"
   inkscape:export-ydpi="196.608"
   xmlns:inkscape="http://www.inkscape.org/namespaces/inkscape"
   xmlns:sodipodi="http://sodipodi.sourceforge.net/DTD/sodipodi-0.dtd"
   xmlns:xlink="http://www.w3.org/1999/xlink"
   xmlns="http://www.w3.org/2000/svg"
   xmlns:svg="http://www.w3.org/2000/svg">
  <sodipodi:namedview
     id="namedview59"
     pagecolor="#ffffff"
     bordercolor="#000000"
     borderopacity="0.25"
     inkscape:showpageshadow="2"
     inkscape:pageopacity="0.0"
     inkscape:pagecheckerboard="0"
     inkscape:deskcolor="#d1d1d1"
     inkscape:zoom="2.334"
     inkscape:cx="250"
     inkscape:cy="250"
     inkscape:window-width="2560"
     inkscape:window-height="1369"
     inkscape:window-x="-8"
     inkscape:window-y="-8"
     inkscape:window-maximized="1"
     inkscape:current-layer="svg59"
     inkscape:export-bgcolor="#ffffffff" />
  <defs
     id="defs1">
    <linearGradient
       id="linearGradient142"
       inkscape:collect="always">
      <stop
         style="stop-color:#df7d7d;stop-opacity:1;"
         offset="0"
         id="stop142" />
      <stop
         style="stop-color:#efc26b;stop-opacity:1;"
         offset="0.20746888"
         id="stop144" />
      <stop
         style="stop-color:#90ce76;stop-opacity:1;"
         offset="0.40145227"
         id="stop145" />
      <stop
         style="stop-color:#93b8cb;stop-opacity:1;"
         offset="0.61566389"
         id="stop146" />
      <stop
         style="stop-color:#a381da;stop-opacity:1;"
         offset="0.79849589"
         id="stop147" />
      <stop
         style="stop-color:#cd9bc6;stop-opacity:1;"
         offset="1"
         id="stop143" />
    </linearGradient>
    <g
       id="g1" />
    <clipPath
       id="15e71a0574">
      <path
         d="M 212.058594 99.679688 L 239.808594 99.679688 L 239.808594 125.929688 L 212.058594 125.929688 Z M 212.058594 99.679688 "
         clip-rule="nonzero"
         id="path1" />
    </clipPath>
    <linearGradient
       inkscape:collect="always"
       xlink:href="#linearGradient142"
       id="linearGradient143"
       x1="-191.986"
       y1="-42"
       x2="100"
       y2="-42"
       gradientUnits="userSpaceOnUse" />
  </defs>
  <path
     id="path144"
     style="display:inline;fill:url(#linearGradient143)"
     transform="translate(237.486,239.448)"
     d="M 54.390625,-80 C 39.460938,-80 32,-70.664062 32,-52 c 0,18.667969 7.460938,28 22.390625,28 C 68.796875,-24 76,-33.332031 76,-52 76,-70.664062 68.796875,-80 54.390625,-80 Z m 0,-24 C 84.796875,-104 100,-86.664062 100,-52 100,-17.332031 84.796875,0 54.390625,0 23.460938,0 8,-17.332031 8,-52 c 0,-34.664062 15.460938,-52 46.390625,-52 z m 4.890625,88 h 28 L 99.265625,8.796875 79.28125,20 Z m 0,0 M 0.002,-104 V 0 h -24 v -104 z m 0,0 m -55.994,40 c 0,-10.664062 -4.539062,-16 -13.609375,-16 -9.59375,0 -14.390625,5.335938 -14.390625,16 V 0 h -24 v -64 c 0,-26.664062 12.796875,-40 38.390625,-40 25.070313,0 37.609375,13.335938 37.609375,40 V 0 h -24 z m 0,0 m -83.994,-40 h 24 v 64 c 0,26.667969 -12.53906,40 -37.60937,40 -25.59375,0 -38.39063,-13.332031 -38.39063,-40 v -64 h 24 v 64 c 0,10.667969 4.79688,16 14.39063,16 9.07031,0 13.60937,-5.332031 13.60937,-16 z m 0,0 M -141.65787,7.59106 H 41.66244 c 2.8164,0 5.09765,2.28125 5.09765,5.09375 v 18.92578 c 0,2.8125 -2.28125,5.09375 -5.09765,5.09375 h -183.32031 c -2.8125,0 -5.09375,-2.28125 -5.09375,-5.09375 V 12.68481 c 0,-2.8125 2.28125,-5.09375 5.09375,-5.09375 z m 0,0 m 131.03124,-147.14453 c 0.41407,0.20313 0.7461,0.53125 0.94922,0.9375 l 3.15625,6.3086 7.05469,1.01171 c 1.12891,0.16407 1.91797,1.19141 1.77344,2.30469 l -0.004,0.0352 c -0.0664,0.44922 -0.28125,0.86328 -0.60937,1.17969 l -5.10547,4.91015 1.20312,6.9336 c 0.19532,1.11328 -0.55078,2.16796 -1.67187,2.3789 l -0.0352,0.004 c -0.45312,0.0781 -0.91797,0.004 -1.32422,-0.20703 l -6.3125,-3.27344 -6.30859,3.27344 c -1.01172,0.52734 -2.26172,0.15234 -2.80859,-0.83594 l -0.0156,-0.0273 c -0.21484,-0.40235 -0.28906,-0.86329 -0.21094,-1.3125 l 1.20703,-6.9336 -5.10546,-4.91015 c -0.82032,-0.78907 -0.84375,-2.07422 -0.0625,-2.89454 l 0.0234,-0.0234 c 0.32032,-0.32422 0.74219,-0.53516 1.19532,-0.60157 l 7.05859,-1.01171 3.15234,-6.3086 c 0.51172,-1.02344 1.76563,-1.4414 2.80078,-0.9375 z m 0,0" />
  <path
     id="path10"
     style="display:inline;fill:url(#linearGradient143)"
     transform="translate(237.486, 239.448)"
     d="M 54.390625,-80 C 39.460938,-80 32,-70.664062 32,-52 c 0,18.667969 7.460938,28 22.390625,28 C 68.796875,-24 76,-33.332031 76,-52 76,-70.664062 68.796875,-80 54.390625,-80 Z m 0,-24 C 84.796875,-104 100,-86.664062 100,-52 100,-17.332031 84.796875,0 54.390625,0 23.460938,0 8,-17.332031 8,-52 c 0,-34.664062 15.460938,-52 46.390625,-52 z m 4.890625,88 h 28 L 99.265625,8.796875 79.28125,20 Z m 0,0 M 0.002,-104 V 0 h -24 v -104 z m 0,0 m -55.994,40 c 0,-10.664062 -4.539062,-16 -13.609375,-16 -9.59375,0 -14.390625,5.335938 -14.390625,16 V 0 h -24 v -64 c 0,-26.664062 12.796875,-40 38.390625,-40 25.070313,0 37.609375,13.335938 37.609375,40 V 0 h -24 z m 0,0 m -83.994,-40 h 24 v 64 c 0,26.667969 -12.53906,40 -37.60937,40 -25.59375,0 -38.39063,-13.332031 -38.39063,-40 v -64 h 24 v 64 c 0,10.667969 4.79688,16 14.39063,16 9.07031,0 13.60937,-5.332031 13.60937,-16 z m 0,0" />
  <g
     clip-path="url(#15e71a0574)"
     id="g14"
     style="display:inline"
     inkscape:label="Star" />
  <g
     id="g60"
     inkscape:label="THW">
    <g
       fill="#ffffff"
       fill-opacity="1"
       id="g17"
       style="display:inline">
      <g
         transform="translate(98.030823,267.05036)"
         id="g16">
        <g
           id="g15">
          <path
             d="M 4.21875,0 V -10.875 H 0.640625 v -1.890625 h 9.21875 V -10.875 H 6.1875 V 0 Z m 0,0"
             id="path15" />
        </g>
      </g>
    </g>
    <g
       fill="#ffffff"
       fill-opacity="1"
       id="g20"
       style="display:inline">
      <g
         transform="translate(108.52417,267.05036)"
         id="g19">
        <g
           id="g18">
          <path
             d="M 1.78125,-12.765625 H 9.828125 V -10.875 H 3.75 V -7.5 h 5.078125 v 1.90625 H 3.75 v 3.703125 H 9.828125 V 0 H 1.78125 Z m 0,0"
             id="path17" />
        </g>
      </g>
    </g>
    <g
       fill="#ffffff"
       fill-opacity="1"
       id="g23"
       style="display:inline">
      <g
         transform="translate(119.70979,267.05036)"
         id="g22">
        <g
           id="g21" />
      </g>
    </g>
    <g
       fill="#ffffff"
       fill-opacity="1"
       id="g26"
       style="display:inline">
      <g
         transform="translate(124.81072,267.05036)"
         id="g25">
        <g
           id="g24">
          <path
             d="M 3.75,-12.765625 V -7.3125 h 6.375 v -5.453125 h 1.96875 V 0 H 10.125 V -5.421875 H 3.75 V 0 H 1.78125 v -12.765625 z m 0,0"
             id="path23" />
        </g>
      </g>
    </g>
    <g
       fill="#ffffff"
       fill-opacity="1"
       id="g29"
       style="display:inline">
      <g
         transform="translate(138.67431,267.05036)"
         id="g28">
        <g
           id="g27">
          <path
             d="M 1.78125,-12.765625 H 9.828125 V -10.875 H 3.75 V -7.5 h 5.078125 v 1.90625 H 3.75 v 3.703125 H 9.828125 V 0 H 1.78125 Z m 0,0"
             id="path26" />
        </g>
      </g>
    </g>
    <g
       fill="#ffffff"
       fill-opacity="1"
       id="g32"
       style="display:inline">
      <g
         transform="translate(149.85993,267.05036)"
         id="g31">
        <g
           id="g30">
          <path
             d="m 11.25,-8.703125 c 0,0.773437 -0.230469,1.484375 -0.6875,2.140625 -0.449219,0.65625 -1.042969,1.140625 -1.78125,1.453125 l 2.984375,5.125 L 9.375,0 6.671875,-4.796875 H 3.75 V 0 H 1.78125 v -12.765625 h 5.4375 c 0.664062,0 1.304688,0.167969 1.921875,0.5 0.613281,0.324219 1.117187,0.792969 1.515625,1.40625 0.394531,0.605469 0.59375,1.324219 0.59375,2.15625 z M 6.890625,-10.875 H 3.75 v 4.1875 h 3.65625 c 0.582031,0 1.035156,-0.207031 1.359375,-0.625 C 9.085938,-7.726562 9.25,-8.195312 9.25,-8.71875 9.25,-9.382812 9.015625,-9.910156 8.546875,-10.296875 8.085938,-10.679688 7.535156,-10.875 6.890625,-10.875 Z m 0,0"
             id="path29" />
        </g>
      </g>
    </g>
    <g
       fill="#ffffff"
       fill-opacity="1"
       id="g35"
       style="display:inline">
      <g
         transform="translate(162.52117,267.05036)"
         id="g34">
        <g
           id="g33">
          <path
             d="M 1.78125,-12.765625 H 9.828125 V -10.875 H 3.75 V -7.5 h 5.078125 v 1.90625 H 3.75 v 3.703125 H 9.828125 V 0 H 1.78125 Z m 0,0"
             id="path32" />
        </g>
      </g>
    </g>
    <g
       fill="#ffffff"
       fill-opacity="1"
       id="g38"
       style="display:inline">
      <g
         transform="translate(173.70679,267.05036)"
         id="g37">
        <g
           id="g36">
          <path
             d="m 10.703125,-12.765625 h 1.96875 V 0 H 10.875 L 3.453125,-9.734375 C 3.523438,-8.992188 3.59375,-8.253906 3.65625,-7.515625 3.71875,-6.785156 3.75,-6.050781 3.75,-5.3125 V 0 H 1.78125 V -12.765625 H 3.5625 l 7.421875,9.9375 C 10.867188,-3.710938 10.789062,-4.664062 10.75,-5.6875 10.71875,-6.71875 10.70313,-7.675781 10.70313,-8.5625 Z m 0,0"
             id="path35" />
        </g>
      </g>
    </g>
    <g
       fill="#ffffff"
       fill-opacity="1"
       id="g41"
       style="display:inline">
      <g
         transform="translate(188.15336,267.05036)"
         id="g40">
        <g
           id="g39">
          <path
             d="m 7.46875,-12.875 c 0.726562,0 1.40625,0.105469 2.03125,0.3125 0.625,0.210938 1.171875,0.480469 1.640625,0.8125 0.476563,0.324219 0.847656,0.671875 1.109375,1.046875 L 10.984375,-9.375 C 10.492188,-9.832031 9.957031,-10.207031 9.375,-10.5 c -0.585938,-0.300781 -1.21875,-0.453125 -1.90625,-0.453125 -0.855469,0 -1.636719,0.203125 -2.34375,0.609375 -0.699219,0.398438 -1.25,0.9375 -1.65625,1.625 C 3.070312,-8.03125 2.875,-7.25 2.875,-6.375 c 0,0.855469 0.210938,1.636719 0.640625,2.34375 0.425781,0.710938 0.992187,1.273438 1.703125,1.6875 0.71875,0.40625 1.492188,0.609375 2.328125,0.609375 0.601563,0 1.171875,-0.113281 1.703125,-0.34375 0.539062,-0.238281 0.976562,-0.566406 1.3125,-0.984375 0.332031,-0.414062 0.5,-0.890625 0.5,-1.421875 0,-0.0625 0,-0.097656 0,-0.109375 h -3.625 v -1.953125 h 5.65625 c 0.01953,0.1875 0.03906,0.375 0.0625,0.5625 0.01953,0.179687 0.03125,0.355469 0.03125,0.53125 0,0.667969 -0.105469,1.324219 -0.3125,1.96875 -0.199219,0.648437 -0.511719,1.203125 -0.9375,1.671875 -0.480469,0.617188 -1.109375,1.105469 -1.890625,1.46875 C 9.273438,0.0078125 8.425781,0.1875 7.5,0.1875 6.570312,0.1875 5.707031,0.0195312 4.90625,-0.3125 4.101562,-0.65625 3.394531,-1.125 2.78125,-1.71875 2.175781,-2.3125 1.707031,-3.003906 1.375,-3.796875 1.039062,-4.597656 0.875,-5.457031 0.875,-6.375 c 0,-0.925781 0.164062,-1.78125 0.5,-2.5625 0.332031,-0.789062 0.800781,-1.476562 1.40625,-2.0625 0.601562,-0.59375 1.304688,-1.050781 2.109375,-1.375 0.800781,-0.332031 1.660156,-0.5 2.578125,-0.5 z m 0,0"
             id="path38" />
        </g>
      </g>
    </g>
    <g
       fill="#ffffff"
       fill-opacity="1"
       id="g44"
       style="display:inline">
      <g
         transform="translate(202.10805,267.05036)"
         id="g43">
        <g
           id="g42">
          <path
             d="M 10.21875,0 9.015625,-3.171875 H 3.671875 L 2.46875,0 H 0.453125 l 4.9375,-12.765625 H 7.40625 L 12.3125,0 Z m -4.859375,-7.625 -0.96875,2.5625 h 3.90625 l -1,-2.625 C 7.140625,-8.113281 6.976562,-8.570312 6.8125,-9.0625 c -0.15625,-0.5 -0.3125,-1 -0.46875,-1.5 -0.167969,0.511719 -0.335938,1.023438 -0.5,1.53125 -0.167969,0.511719 -0.328125,0.980469 -0.484375,1.40625 z m 0,0"
             id="path41" />
        </g>
      </g>
    </g>
    <g
       fill="#ffffff"
       fill-opacity="1"
       id="g47"
       style="display:inline">
      <g
         transform="translate(214.86038,267.05036)"
         id="g46">
        <g
           id="g45" />
      </g>
    </g>
    <g
       fill="#ffffff"
       fill-opacity="1"
       id="g50"
       style="display:inline">
      <g
         transform="translate(219.9613,267.05036)"
         id="g49">
        <g
           id="g48">
          <path
             d="M 17.71875,-12.765625 13.65625,0 H 12.296875 L 9.015625,-7.75 5.828125,0 H 4.5 L 0.4375,-12.765625 H 2.53125 L 5,-4.78125 c 0.082031,0.292969 0.15625,0.574219 0.21875,0.84375 0.070312,0.273438 0.128906,0.527344 0.171875,0.765625 0.0625,-0.238281 0.132813,-0.492187 0.21875,-0.765625 0.09375,-0.269531 0.195313,-0.554688 0.3125,-0.859375 L 8.21875,-10.5625 H 10 l 2.21875,5.765625 c 0.132812,0.335937 0.242188,0.632813 0.328125,0.890625 0.08203,0.261719 0.15625,0.5 0.21875,0.71875 0.03125,-0.21875 0.07813,-0.460938 0.140625,-0.734375 0.07031,-0.269531 0.164062,-0.570313 0.28125,-0.90625 l 2.421875,-7.9375 z m 0,0"
             id="path47" />
        </g>
      </g>
    </g>
    <g
       fill="#ffffff"
       fill-opacity="1"
       id="g53"
       style="display:inline">
      <g
         transform="translate(238.10606,267.05036)"
         id="g52">
        <g
           id="g51">
          <path
             d="M 10.21875,0 9.015625,-3.171875 H 3.671875 L 2.46875,0 H 0.453125 l 4.9375,-12.765625 H 7.40625 L 12.3125,0 Z m -4.859375,-7.625 -0.96875,2.5625 h 3.90625 l -1,-2.625 C 7.140625,-8.113281 6.976562,-8.570312 6.8125,-9.0625 c -0.15625,-0.5 -0.3125,-1 -0.46875,-1.5 -0.167969,0.511719 -0.335938,1.023438 -0.5,1.53125 -0.167969,0.511719 -0.328125,0.980469 -0.484375,1.40625 z m 0,0"
             id="path50" />
        </g>
      </g>
    </g>
    <g
       fill="#ffffff"
       fill-opacity="1"
       id="g56"
       style="display:inline">
      <g
         transform="translate(250.85839,267.05036)"
         id="g55">
        <g
           id="g54">
          <path
             d="M 3.75,0 H 1.78125 V -12.765625 H 3.75 v 6.25 l 6.265625,-6.25 h 2.578125 l -5.5,5.34375 L 12.703125,0 H 10.25 L 5.703125,-6.078125 3.75,-4.171875 Z m 0,0"
             id="path53" />
        </g>
      </g>
    </g>
    <g
       fill="#ffffff"
       fill-opacity="1"
       id="g59"
       style="display:inline">
      <g
         transform="translate(264.19367,267.05036)"
         id="g58">
        <g
           id="g57">
          <path
             d="M 10.21875,0 9.015625,-3.171875 H 3.671875 L 2.46875,0 H 0.453125 l 4.9375,-12.765625 H 7.40625 L 12.3125,0 Z m -4.859375,-7.625 -0.96875,2.5625 h 3.90625 l -1,-2.625 C 7.140625,-8.113281 6.976562,-8.570312 6.8125,-9.0625 c -0.15625,-0.5 -0.3125,-1 -0.46875,-1.5 -0.167969,0.511719 -0.335938,1.023438 -0.5,1.53125 -0.167969,0.511719 -0.328125,0.980469 -0.484375,1.40625 z m 0,0"
             id="path56" />
        </g>
      </g>
    </g>
  </g>
</svg>
