<svg xmlns="http://www.w3.org/2000/svg" xmlns:xlink="http://www.w3.org/1999/xlink" width="500" zoomAndPan="magnify" viewBox="0 0 375 374.999991" height="500" preserveAspectRatio="xMidYMid meet" version="1.0"><defs><g/><clipPath id="15e71a0574"><path d="M 212.058594 99.679688 L 239.808594 99.679688 L 239.808594 125.929688 L 212.058594 125.929688 Z M 212.058594 99.679688 " clip-rule="nonzero"/></clipPath></defs><g fill="#000000" fill-opacity="1"><g transform="translate(37.500002, 239.448029)"><g><path d="M 60 -104 L 84 -104 L 84 -40 C 84 -13.332031 71.460938 0 46.390625 0 C 20.796875 0 8 -13.332031 8 -40 L 8 -104 L 32 -104 L 32 -40 C 32 -29.332031 36.796875 -24 46.390625 -24 C 55.460938 -24 60 -29.332031 60 -40 Z M 60 -104 "/></g></g></g><g fill="#000000" fill-opacity="1"><g transform="translate(121.493954, 239.448029)"><g><path d="M 60 -64 C 60 -74.664062 55.460938 -80 46.390625 -80 C 36.796875 -80 32 -74.664062 32 -64 L 32 0 L 8 0 L 8 -64 C 8 -90.664062 20.796875 -104 46.390625 -104 C 71.460938 -104 84 -90.664062 84 -64 L 84 0 L 60 0 Z M 60 -64 "/></g></g></g><g fill="#000000" fill-opacity="1"><g transform="translate(205.487905, 239.448029)"><g><path d="M 32 -104 L 32 0 L 8 0 L 8 -104 Z M 32 -104 "/></g></g></g><g fill="#000000" fill-opacity="1"><g transform="translate(237.485601, 239.448029)"><g><path d="M 54.390625 -80 C 39.460938 -80 32 -70.664062 32 -52 C 32 -33.332031 39.460938 -24 54.390625 -24 C 68.796875 -24 76 -33.332031 76 -52 C 76 -70.664062 68.796875 -80 54.390625 -80 Z M 54.390625 -104 C 84.796875 -104 100 -86.664062 100 -52 C 100 -17.332031 84.796875 0 54.390625 0 C 23.460938 0 8 -17.332031 8 -52 C 8 -86.664062 23.460938 -104 54.390625 -104 Z M 59.28125 -16 L 87.28125 -16 L 99.265625 8.796875 L 79.28125 20 Z M 59.28125 -16 "/></g></g></g><g clip-path="url(#15e71a0574)"><path fill="#000000" d="M 226.859375 99.894531 C 227.273438 100.097656 227.605469 100.425781 227.808594 100.832031 L 230.964844 107.140625 L 238.019531 108.152344 C 239.148438 108.316406 239.9375 109.34375 239.792969 110.457031 L 239.789062 110.492188 C 239.722656 110.941406 239.507812 111.355469 239.179688 111.671875 L 234.074219 116.582031 L 235.277344 123.515625 C 235.472656 124.628906 234.726562 125.683594 233.605469 125.894531 L 233.570312 125.898438 C 233.117188 125.976562 232.652344 125.902344 232.246094 125.691406 L 225.933594 122.417969 L 219.625 125.691406 C 218.613281 126.21875 217.363281 125.84375 216.816406 124.855469 L 216.800781 124.828125 C 216.585938 124.425781 216.511719 123.964844 216.589844 123.515625 L 217.796875 116.582031 L 212.691406 111.671875 C 211.871094 110.882812 211.847656 109.597656 212.628906 108.777344 L 212.652344 108.753906 C 212.972656 108.429688 213.394531 108.21875 213.847656 108.152344 L 220.90625 107.140625 L 224.058594 100.832031 C 224.570312 99.808594 225.824219 99.390625 226.859375 99.894531 Z M 226.859375 99.894531 " fill-opacity="1" fill-rule="nonzero"/></g><path fill="#000000" d="M 95.828125 247.039062 L 279.148438 247.039062 C 281.964844 247.039062 284.246094 249.320312 284.246094 252.132812 L 284.246094 271.058594 C 284.246094 273.871094 281.964844 276.152344 279.148438 276.152344 L 95.828125 276.152344 C 93.015625 276.152344 90.734375 273.871094 90.734375 271.058594 L 90.734375 252.132812 C 90.734375 249.320312 93.015625 247.039062 95.828125 247.039062 Z M 95.828125 247.039062 " fill-opacity="1" fill-rule="nonzero"/><g fill="#ffffff" fill-opacity="1"><g transform="translate(98.030823, 267.050356)"><g><path d="M 4.21875 0 L 4.21875 -10.875 L 0.640625 -10.875 L 0.640625 -12.765625 L 9.859375 -12.765625 L 9.859375 -10.875 L 6.1875 -10.875 L 6.1875 0 Z M 4.21875 0 "/></g></g></g><g fill="#ffffff" fill-opacity="1"><g transform="translate(108.524168, 267.050356)"><g><path d="M 1.78125 -12.765625 L 9.828125 -12.765625 L 9.828125 -10.875 L 3.75 -10.875 L 3.75 -7.5 L 8.828125 -7.5 L 8.828125 -5.59375 L 3.75 -5.59375 L 3.75 -1.890625 L 9.828125 -1.890625 L 9.828125 0 L 1.78125 0 Z M 1.78125 -12.765625 "/></g></g></g><g fill="#ffffff" fill-opacity="1"><g transform="translate(119.709791, 267.050356)"><g/></g></g><g fill="#ffffff" fill-opacity="1"><g transform="translate(124.810715, 267.050356)"><g><path d="M 3.75 -12.765625 L 3.75 -7.3125 L 10.125 -7.3125 L 10.125 -12.765625 L 12.09375 -12.765625 L 12.09375 0 L 10.125 0 L 10.125 -5.421875 L 3.75 -5.421875 L 3.75 0 L 1.78125 0 L 1.78125 -12.765625 Z M 3.75 -12.765625 "/></g></g></g><g fill="#ffffff" fill-opacity="1"><g transform="translate(138.67431, 267.050356)"><g><path d="M 1.78125 -12.765625 L 9.828125 -12.765625 L 9.828125 -10.875 L 3.75 -10.875 L 3.75 -7.5 L 8.828125 -7.5 L 8.828125 -5.59375 L 3.75 -5.59375 L 3.75 -1.890625 L 9.828125 -1.890625 L 9.828125 0 L 1.78125 0 Z M 1.78125 -12.765625 "/></g></g></g><g fill="#ffffff" fill-opacity="1"><g transform="translate(149.859933, 267.050356)"><g><path d="M 11.25 -8.703125 C 11.25 -7.929688 11.019531 -7.21875 10.5625 -6.5625 C 10.113281 -5.90625 9.519531 -5.421875 8.78125 -5.109375 L 11.765625 0.015625 L 9.375 0 L 6.671875 -4.796875 L 3.75 -4.796875 L 3.75 0 L 1.78125 0 L 1.78125 -12.765625 L 7.21875 -12.765625 C 7.882812 -12.765625 8.523438 -12.597656 9.140625 -12.265625 C 9.753906 -11.941406 10.257812 -11.472656 10.65625 -10.859375 C 11.050781 -10.253906 11.25 -9.535156 11.25 -8.703125 Z M 6.890625 -10.875 L 3.75 -10.875 L 3.75 -6.6875 L 7.40625 -6.6875 C 7.988281 -6.6875 8.441406 -6.894531 8.765625 -7.3125 C 9.085938 -7.726562 9.25 -8.195312 9.25 -8.71875 C 9.25 -9.382812 9.015625 -9.910156 8.546875 -10.296875 C 8.085938 -10.679688 7.535156 -10.875 6.890625 -10.875 Z M 6.890625 -10.875 "/></g></g></g><g fill="#ffffff" fill-opacity="1"><g transform="translate(162.521166, 267.050356)"><g><path d="M 1.78125 -12.765625 L 9.828125 -12.765625 L 9.828125 -10.875 L 3.75 -10.875 L 3.75 -7.5 L 8.828125 -7.5 L 8.828125 -5.59375 L 3.75 -5.59375 L 3.75 -1.890625 L 9.828125 -1.890625 L 9.828125 0 L 1.78125 0 Z M 1.78125 -12.765625 "/></g></g></g><g fill="#ffffff" fill-opacity="1"><g transform="translate(173.706789, 267.050356)"><g><path d="M 10.703125 -12.765625 L 12.671875 -12.765625 L 12.671875 0 L 10.875 0 L 3.453125 -9.734375 C 3.523438 -8.992188 3.59375 -8.253906 3.65625 -7.515625 C 3.71875 -6.785156 3.75 -6.050781 3.75 -5.3125 L 3.75 0 L 1.78125 0 L 1.78125 -12.765625 L 3.5625 -12.765625 L 10.984375 -2.828125 C 10.867188 -3.710938 10.789062 -4.664062 10.75 -5.6875 C 10.71875 -6.71875 10.703125 -7.675781 10.703125 -8.5625 Z M 10.703125 -12.765625 "/></g></g></g><g fill="#ffffff" fill-opacity="1"><g transform="translate(188.153358, 267.050356)"><g><path d="M 7.46875 -12.875 C 8.195312 -12.875 8.875 -12.769531 9.5 -12.5625 C 10.125 -12.351562 10.671875 -12.082031 11.140625 -11.75 C 11.617188 -11.425781 11.988281 -11.078125 12.25 -10.703125 L 10.984375 -9.375 C 10.492188 -9.832031 9.957031 -10.207031 9.375 -10.5 C 8.789062 -10.800781 8.15625 -10.953125 7.46875 -10.953125 C 6.613281 -10.953125 5.832031 -10.75 5.125 -10.34375 C 4.425781 -9.945312 3.875 -9.40625 3.46875 -8.71875 C 3.070312 -8.03125 2.875 -7.25 2.875 -6.375 C 2.875 -5.519531 3.085938 -4.738281 3.515625 -4.03125 C 3.941406 -3.320312 4.507812 -2.757812 5.21875 -2.34375 C 5.9375 -1.9375 6.710938 -1.734375 7.546875 -1.734375 C 8.148438 -1.734375 8.71875 -1.847656 9.25 -2.078125 C 9.789062 -2.316406 10.226562 -2.644531 10.5625 -3.0625 C 10.894531 -3.476562 11.0625 -3.953125 11.0625 -4.484375 C 11.0625 -4.546875 11.0625 -4.582031 11.0625 -4.59375 L 7.4375 -4.59375 L 7.4375 -6.546875 L 13.09375 -6.546875 C 13.113281 -6.359375 13.132812 -6.171875 13.15625 -5.984375 C 13.175781 -5.804688 13.1875 -5.628906 13.1875 -5.453125 C 13.1875 -4.785156 13.082031 -4.128906 12.875 -3.484375 C 12.675781 -2.835938 12.363281 -2.28125 11.9375 -1.8125 C 11.457031 -1.195312 10.828125 -0.707031 10.046875 -0.34375 C 9.273438 0.0078125 8.425781 0.1875 7.5 0.1875 C 6.570312 0.1875 5.707031 0.0195312 4.90625 -0.3125 C 4.101562 -0.65625 3.394531 -1.125 2.78125 -1.71875 C 2.175781 -2.3125 1.707031 -3.003906 1.375 -3.796875 C 1.039062 -4.597656 0.875 -5.457031 0.875 -6.375 C 0.875 -7.300781 1.039062 -8.15625 1.375 -8.9375 C 1.707031 -9.726562 2.175781 -10.414062 2.78125 -11 C 3.382812 -11.59375 4.085938 -12.050781 4.890625 -12.375 C 5.691406 -12.707031 6.550781 -12.875 7.46875 -12.875 Z M 7.46875 -12.875 "/></g></g></g><g fill="#ffffff" fill-opacity="1"><g transform="translate(202.10805, 267.050356)"><g><path d="M 10.21875 0 L 9.015625 -3.171875 L 3.671875 -3.171875 L 2.46875 0 L 0.453125 0 L 5.390625 -12.765625 L 7.40625 -12.765625 L 12.3125 0 Z M 5.359375 -7.625 L 4.390625 -5.0625 L 8.296875 -5.0625 L 7.296875 -7.6875 C 7.140625 -8.113281 6.976562 -8.570312 6.8125 -9.0625 C 6.65625 -9.5625 6.5 -10.0625 6.34375 -10.5625 C 6.175781 -10.050781 6.007812 -9.539062 5.84375 -9.03125 C 5.675781 -8.519531 5.515625 -8.050781 5.359375 -7.625 Z M 5.359375 -7.625 "/></g></g></g><g fill="#ffffff" fill-opacity="1"><g transform="translate(214.86038, 267.050356)"><g/></g></g><g fill="#ffffff" fill-opacity="1"><g transform="translate(219.961304, 267.050356)"><g><path d="M 17.71875 -12.765625 L 13.65625 0 L 12.296875 0 L 9.015625 -7.75 L 5.828125 0 L 4.5 0 L 0.4375 -12.765625 L 2.53125 -12.765625 L 5 -4.78125 C 5.082031 -4.488281 5.15625 -4.207031 5.21875 -3.9375 C 5.289062 -3.664062 5.347656 -3.410156 5.390625 -3.171875 C 5.453125 -3.410156 5.523438 -3.664062 5.609375 -3.9375 C 5.703125 -4.207031 5.804688 -4.492188 5.921875 -4.796875 L 8.21875 -10.5625 L 10 -10.5625 L 12.21875 -4.796875 C 12.351562 -4.460938 12.460938 -4.164062 12.546875 -3.90625 C 12.628906 -3.644531 12.703125 -3.40625 12.765625 -3.1875 C 12.796875 -3.40625 12.84375 -3.648438 12.90625 -3.921875 C 12.976562 -4.191406 13.070312 -4.492188 13.1875 -4.828125 L 15.609375 -12.765625 Z M 17.71875 -12.765625 "/></g></g></g><g fill="#ffffff" fill-opacity="1"><g transform="translate(238.106056, 267.050356)"><g><path d="M 10.21875 0 L 9.015625 -3.171875 L 3.671875 -3.171875 L 2.46875 0 L 0.453125 0 L 5.390625 -12.765625 L 7.40625 -12.765625 L 12.3125 0 Z M 5.359375 -7.625 L 4.390625 -5.0625 L 8.296875 -5.0625 L 7.296875 -7.6875 C 7.140625 -8.113281 6.976562 -8.570312 6.8125 -9.0625 C 6.65625 -9.5625 6.5 -10.0625 6.34375 -10.5625 C 6.175781 -10.050781 6.007812 -9.539062 5.84375 -9.03125 C 5.675781 -8.519531 5.515625 -8.050781 5.359375 -7.625 Z M 5.359375 -7.625 "/></g></g></g><g fill="#ffffff" fill-opacity="1"><g transform="translate(250.858386, 267.050356)"><g><path d="M 3.75 0 L 1.78125 0 L 1.78125 -12.765625 L 3.75 -12.765625 L 3.75 -6.515625 L 10.015625 -12.765625 L 12.59375 -12.765625 L 7.09375 -7.421875 L 12.703125 0 L 10.25 0 L 5.703125 -6.078125 L 3.75 -4.171875 Z M 3.75 0 "/></g></g></g><g fill="#ffffff" fill-opacity="1"><g transform="translate(264.193669, 267.050356)"><g><path d="M 10.21875 0 L 9.015625 -3.171875 L 3.671875 -3.171875 L 2.46875 0 L 0.453125 0 L 5.390625 -12.765625 L 7.40625 -12.765625 L 12.3125 0 Z M 5.359375 -7.625 L 4.390625 -5.0625 L 8.296875 -5.0625 L 7.296875 -7.6875 C 7.140625 -8.113281 6.976562 -8.570312 6.8125 -9.0625 C 6.65625 -9.5625 6.5 -10.0625 6.34375 -10.5625 C 6.175781 -10.050781 6.007812 -9.539062 5.84375 -9.03125 C 5.675781 -8.519531 5.515625 -8.050781 5.359375 -7.625 Z M 5.359375 -7.625 "/></g></g></g></svg>