<?xml version="1.0" encoding="UTF-8" standalone="no"?><!DOCTYPE svg PUBLIC "-//W3C//DTD SVG 1.1//EN" "http://www.w3.org/Graphics/SVG/1.1/DTD/svg11.dtd"><svg width="100%" height="100%" viewBox="0 0 500 500" version="1.1" xmlns="http://www.w3.org/2000/svg" xmlns:xlink="http://www.w3.org/1999/xlink" xml:space="preserve" xmlns:serif="http://www.serif.com/" style="fill-rule:evenodd;clip-rule:evenodd;stroke-linejoin:round;stroke-miterlimit:2;"><g id="g24"><g id="g4"><clipPath id="_clip1"><rect x="3.715" y="117.82" width="496.285" height="264.361"/></clipPath><g clip-path="url(#_clip1)"><g id="g3"><g id="g2"><path id="path2" d="M304.92,117.822c-1.224,0.048 -2.384,0.756 -2.963,1.94l-5.203,10.663l-11.647,1.705c-0.753,0.112 -1.444,0.472 -1.974,1.023l-0.045,0.036c-1.29,1.387 -1.246,3.563 0.103,4.89l8.423,8.298l-1.99,11.719c-0.127,0.753 0.002,1.536 0.352,2.214l0.028,0.053c0.902,1.662 2.96,2.296 4.63,1.409l10.417,-5.533l10.414,5.533c0.678,0.358 1.446,0.476 2.192,0.349l0.059,-0.006c1.841,-0.358 3.08,-2.141 2.759,-4.02l-1.991,-11.719l8.432,-8.298c0.537,-0.537 0.894,-1.238 0.998,-1.991l0.008,-0.059c0.246,-1.886 -1.058,-3.624 -2.921,-3.9l-11.647,-1.705l-5.211,-10.663c-0.335,-0.686 -0.887,-1.244 -1.566,-1.58c-0.534,-0.268 -1.102,-0.383 -1.658,-0.361Zm-301.205,55.167l0,107.98c0,44.992 21.59,67.485 64.77,67.485c42.285,0 63.428,-22.493 63.428,-67.485l0,-107.98l-40.495,0l0,107.98c0,17.997 -7.65,26.987 -22.933,26.987c-16.207,0 -24.303,-8.99 -24.303,-26.987l0,-107.98l-40.467,0Zm206.482,0c-43.18,0 -64.77,22.5 -64.77,67.485l0,107.98l40.467,0l0,-107.98c0,-17.989 8.095,-26.989 24.303,-26.989c15.283,0 22.933,9 22.933,26.989l0,107.98l40.495,0l0,-107.98c0,-44.984 -21.143,-67.485 -63.428,-67.485Zm76.945,0l0,175.464l40.467,0l0,-175.464l-40.467,0Zm132.266,0c-52.186,0 -78.279,29.245 -78.279,87.731c0,58.493 26.093,87.734 78.279,87.734c7.968,0 15.314,-0.709 22.044,-2.122l19.914,35.849l33.755,-18.876l-17.887,-36.964c12.716,-14.621 19.08,-36.49 19.08,-65.62c0,-58.485 -25.637,-87.731 -76.906,-87.731Zm100.037,0.182c-6.121,0 -11.088,4.967 -11.088,11.088l0,152.68c0,6.128 4.967,11.093 11.088,11.093l37.708,0c6.121,0 11.085,-4.965 11.085,-11.093l0,-152.68c0,-6.121 -4.964,-11.088 -11.085,-11.088l-37.708,0Zm-100.037,40.313c24.289,0 36.439,15.745 36.439,47.236c0,31.49 -12.15,47.236 -36.439,47.236c-25.213,0 -37.814,-15.745 -37.814,-47.236c0,-31.49 12.601,-47.236 37.814,-47.236Z" style="fill:url(#_Linear2);fill-rule:nonzero;"/></g></g></g></g><g id="g7"></g><g id="g10"></g><g id="g13"></g></g><g id="g17"></g><g id="g20"></g><g id="g23"></g><defs><linearGradient id="_Linear2" x1="0" y1="0" x2="1" y2="0" gradientUnits="userSpaceOnUse" gradientTransform="matrix(564.522722,0,0,564.522722,3.714775,249.999999)"><stop offset="0" style="stop-color:#df7d7d;stop-opacity:1"/><stop offset="0.21" style="stop-color:#efc26b;stop-opacity:1"/><stop offset="0.4" style="stop-color:#90ce76;stop-opacity:1"/><stop offset="0.62" style="stop-color:#93b8cb;stop-opacity:1"/><stop offset="0.8" style="stop-color:#a381da;stop-opacity:1"/><stop offset="1" style="stop-color:#cd9bc6;stop-opacity:1"/></linearGradient></defs></svg>