<?xml version="1.0" encoding="UTF-8" standalone="no"?>
<svg
   width="500"
   zoomAndPan="magnify"
   viewBox="0 0 375 374.999991"
   height="500"
   preserveAspectRatio="xMidYMid meet"
   version="1.0"
   id="svg23"
   sodipodi:docname="UniQ.svg"
   inkscape:version="1.4 (86a8ad7, 2024-10-11)"
   xmlns:inkscape="http://www.inkscape.org/namespaces/inkscape"
   xmlns:sodipodi="http://sodipodi.sourceforge.net/DTD/sodipodi-0.dtd"
   xmlns:xlink="http://www.w3.org/1999/xlink"
   xmlns="http://www.w3.org/2000/svg"
   xmlns:svg="http://www.w3.org/2000/svg">
  <sodipodi:namedview
     id="namedview23"
     pagecolor="#ffffff"
     bordercolor="#000000"
     borderopacity="0.25"
     inkscape:showpageshadow="2"
     inkscape:pageopacity="0.0"
     inkscape:pagecheckerboard="0"
     inkscape:deskcolor="#d1d1d1"
     inkscape:zoom="2.334"
     inkscape:cx="250"
     inkscape:cy="250"
     inkscape:window-width="2560"
     inkscape:window-height="1369"
     inkscape:window-x="2552"
     inkscape:window-y="-8"
     inkscape:window-maximized="1"
     inkscape:current-layer="svg23" />
  <defs
     id="defs1">
    <linearGradient
       id="linearGradient36"
       inkscape:collect="always">
      <stop
         style="stop-color:#df7d7d;stop-opacity:1;"
         offset="0"
         id="stop36" />
      <stop
         style="stop-color:#efc26b;stop-opacity:1;"
         offset="0.20999999"
         id="stop38" />
      <stop
         style="stop-color:#90ce76;stop-opacity:1;"
         offset="0.40000001"
         id="stop39" />
      <stop
         style="stop-color:#93b8cb;stop-opacity:1;"
         offset="0.62429017"
         id="stop40" />
      <stop
         style="stop-color:#a381da;stop-opacity:1;"
         offset="0.80000001"
         id="stop41" />
      <stop
         style="stop-color:#cd9bc6;stop-opacity:1;"
         offset="1"
         id="stop37" />
    </linearGradient>
    <g
       id="g1" />
    <clipPath
       id="7a1fb4fec9">
      <path
         d="M 190.46875 112.578125 L 214.46875 112.578125 L 214.46875 135.820312 L 190.46875 135.820312 Z M 190.46875 112.578125 "
         clip-rule="nonzero"
         id="path1" />
    </clipPath>
    <linearGradient
       inkscape:collect="always"
       xlink:href="#linearGradient36"
       id="linearGradient37"
       x1="7.0781225"
       y1="-51.586182"
       x2="302.87109"
       y2="-51.586182"
       gradientUnits="userSpaceOnUse" />
  </defs>
  <g
     id="g24">
    <g
       fill="#000000"
       fill-opacity="1"
       id="g4">
      <g
         transform="translate(37.500002, 233.423862)"
         id="g3">
        <g
           id="g2">
          <path
             id="path2"
             d="M 164.90039 -120.8433 C 164.25927 -120.81791 163.65112 -120.44706 163.34765 -119.8267 L 160.62158 -114.23978 L 154.51904 -113.34623 C 154.12451 -113.28763 153.7622 -113.09916 153.48486 -112.81009 L 153.46142 -112.79105 C 152.78564 -112.06449 152.80859 -110.92435 153.51562 -110.22904 L 157.92919 -105.88138 L 156.88623 -99.740758 C 156.81982 -99.346227 156.8872 -98.936071 157.0708 -98.580602 L 157.08544 -98.55277 C 157.5581 -97.681676 158.63623 -97.349645 159.51123 -97.814489 L 164.96923 -100.71341 L 170.42578 -97.814489 C 170.78125 -97.626989 171.18359 -97.564977 171.57421 -97.631383 L 171.60498 -97.634313 C 172.56982 -97.821813 173.21875 -98.756383 173.05078 -99.740758 L 172.00781 -105.88138 L 176.42578 -110.22904 C 176.70703 -110.51029 176.89404 -110.87748 176.94873 -111.27201 L 176.95312 -111.30277 C 177.08203 -112.29105 176.39892 -113.2017 175.42236 -113.34623 L 169.31982 -114.23978 L 166.58935 -119.8267 C 166.41357 -120.18607 166.12451 -120.47855 165.76904 -120.65433 C 165.4895 -120.79471 165.1918 -120.85484 164.90039 -120.8433 z M 7.0781225 -91.937536 L 7.0781225 -35.359411 C 7.0781225 -11.785192 18.390622 0.00045160516 41.015622 0.00045160516 C 63.171872 0.00045160516 74.249997 -11.785192 74.249997 -35.359411 L 74.249997 -91.937536 L 53.031735 -91.937536 L 53.031735 -35.359411 C 53.031735 -25.929724 49.023435 -21.219275 41.015622 -21.219275 C 32.523435 -21.219275 28.281735 -25.929724 28.281735 -35.359411 L 28.281735 -91.937536 L 7.0781225 -91.937536 z M 115.26855 -91.937536 C 92.643551 -91.937536 81.331051 -80.147986 81.331051 -56.577673 L 81.331051 0.00045160516 L 102.53466 0.00045160516 L 102.53466 -56.577673 C 102.53466 -66.003454 106.77636 -70.719274 115.26855 -70.719274 C 123.27636 -70.719274 127.28466 -66.003454 127.28466 -56.577673 L 127.28466 0.00045160516 L 148.50293 0.00045160516 L 148.50293 -56.577673 C 148.50293 -80.147986 137.4248 -91.937536 115.26855 -91.937536 z M 155.58544 -91.937536 L 155.58544 0.00045160516 L 176.78906 0.00045160516 L 176.78906 -91.937536 L 155.58544 -91.937536 z M 224.88867 -91.937536 C 197.54492 -91.937536 183.87304 -76.613805 183.87304 -45.969274 C 183.87304 -15.320836 197.54492 0.00045160516 224.88867 0.00045160516 C 229.06391 0.00045160516 232.91257 -0.37114399 236.43896 -1.1113648 L 246.87304 17.672326 L 264.55956 7.7817015 L 255.18749 -11.586462 C 261.85016 -19.247476 265.18505 -30.706374 265.18505 -45.969274 C 265.18505 -76.613805 251.75195 -91.937536 224.88867 -91.937536 z M 277.30517 -91.842321 C 274.09814 -91.842321 271.4956 -89.239781 271.4956 -86.03275 L 271.4956 -6.0332397 C 271.4956 -2.8223027 274.09814 -0.2207398 277.30517 -0.2207398 L 297.06298 -0.2207398 C 300.27001 -0.2207398 302.87109 -2.8223027 302.87109 -6.0332397 L 302.87109 -86.03275 C 302.87109 -89.239781 300.27001 -91.842321 297.06298 -91.842321 L 277.30517 -91.842321 z M 224.88867 -70.719274 C 237.61523 -70.719274 243.98144 -62.469274 243.98144 -45.969274 C 243.98144 -29.469274 237.61523 -21.219275 224.88867 -21.219275 C 211.67773 -21.219275 205.07519 -29.469274 205.07519 -45.969274 C 205.07519 -62.469274 211.67773 -70.719274 224.88867 -70.719274 z "
             style="fill:url(#linearGradient37)" />
        </g>
      </g>
    </g>
    <g
       fill="#000000"
       fill-opacity="1"
       id="g7">
      <g
         transform="translate(111.753577, 233.423862)"
         id="g6">
        <g
           id="g5" />
      </g>
    </g>
    <g
       fill="#000000"
       fill-opacity="1"
       id="g10">
      <g
         transform="translate(186.007151, 233.423862)"
         id="g9">
        <g
           id="g8" />
      </g>
    </g>
    <g
       fill="#000000"
       fill-opacity="1"
       id="g13">
      <g
         transform="translate(214.294227, 233.423862)"
         id="g12">
        <g
           id="g11" />
      </g>
    </g>
    <g
       clip-path="url(#7a1fb4fec9)"
       id="g14" />
  </g>
  <g
     fill="#ffffff"
     fill-opacity="1"
     id="g17"
     style="display:inline">
    <g
       transform="translate(318.43539,165.05553)"
       id="g16">
      <g
         id="g15">
        <path
           d="M 5,0 V -12.890625 H 0.75 v -2.25 h 10.953125 v 2.25 H 7.34375 V 0 Z m 0,0"
           id="path15" />
      </g>
    </g>
  </g>
  <g
     fill="#ffffff"
     fill-opacity="1"
     id="g20">
    <g
       transform="translate(316.448826, 194.263371)"
       id="g19">
      <g
         id="g18">
        <path
           d="M 4.453125 -15.140625 L 4.453125 -8.671875 L 12.015625 -8.671875 L 12.015625 -15.140625 L 14.34375 -15.140625 L 14.34375 0 L 12.015625 0 L 12.015625 -6.421875 L 4.453125 -6.421875 L 4.453125 0 L 2.125 0 L 2.125 -15.140625 Z M 4.453125 -15.140625 "
           id="path17" />
      </g>
    </g>
  </g>
  <g
     fill="#ffffff"
     fill-opacity="1"
     id="g23">
    <g
       transform="translate(313.898509, 223.471213)"
       id="g22">
      <g
         id="g21">
        <path
           d="M 21.03125 -15.140625 L 16.203125 0 L 14.578125 0 L 10.6875 -9.203125 L 6.921875 0 L 5.34375 0 L 0.515625 -15.140625 L 3.015625 -15.140625 L 5.921875 -5.671875 C 6.023438 -5.328125 6.113281 -4.992188 6.1875 -4.671875 C 6.269531 -4.359375 6.34375 -4.054688 6.40625 -3.765625 C 6.476562 -4.054688 6.5625 -4.359375 6.65625 -4.671875 C 6.757812 -4.992188 6.882812 -5.332031 7.03125 -5.6875 L 9.765625 -12.53125 L 11.859375 -12.53125 L 14.5 -5.6875 C 14.65625 -5.300781 14.785156 -4.953125 14.890625 -4.640625 C 14.992188 -4.328125 15.078125 -4.039062 15.140625 -3.78125 C 15.191406 -4.039062 15.253906 -4.328125 15.328125 -4.640625 C 15.410156 -4.960938 15.515625 -5.328125 15.640625 -5.734375 L 18.53125 -15.140625 Z M 21.03125 -15.140625 "
           id="path20" />
      </g>
    </g>
  </g>
</svg>
