<?xml version="1.0" encoding="UTF-8" standalone="no"?>
<svg
   width="404"
   zoomAndPan="magnify"
   viewBox="0 0 303 150.74999"
   height="201"
   preserveAspectRatio="xMidYMid"
   version="1.0"
   id="svg23"
   xmlns="http://www.w3.org/2000/svg"
   xmlns:svg="http://www.w3.org/2000/svg">
  <defs
     id="defs1">
    <clipPath
       id="8b87eff7b8">
      <path
         d="m 190.46875,112.57813 h 24 v 23.23046 h -24 z m 0,0"
         clip-rule="nonzero"
         id="path1" />
    </clipPath>
  </defs>
  <g
     fill="#ffffff"
     fill-opacity="1"
     id="g4"
     transform="translate(-38.239074,-106.6838)">
    <g
       transform="translate(37.500002,233.42386)"
       id="g3">
      <g
         id="g2">
        <path
           d="M 53.03125,-91.9375 H 74.25 v 56.578125 C 74.25,-11.785156 63.171875,0 41.015625,0 18.390625,0 7.078125,-11.785156 7.078125,-35.359375 V -91.9375 H 28.28125 v 56.578125 c 0,9.429687 4.242188,14.140625 12.734375,14.140625 8.007813,0 12.015625,-4.710938 12.015625,-14.140625 z m 0,0"
           id="path2" />
      </g>
    </g>
  </g>
  <g
     fill="#ffffff"
     fill-opacity="1"
     id="g7"
     transform="translate(-38.239074,-106.6838)">
    <g
       transform="translate(111.75358,233.42386)"
       id="g6">
      <g
         id="g5">
        <path
           d="m 53.03125,-56.578125 c 0,-9.425781 -4.007812,-14.140625 -12.015625,-14.140625 -8.492187,0 -12.734375,4.714844 -12.734375,14.140625 V 0 H 7.078125 v -56.578125 c 0,-23.570313 11.3125,-35.359375 33.9375,-35.359375 22.15625,0 33.234375,11.789062 33.234375,35.359375 V 0 H 53.03125 Z m 0,0"
           id="path4" />
      </g>
    </g>
  </g>
  <g
     fill="#ffffff"
     fill-opacity="1"
     id="g10"
     transform="translate(-38.239074,-106.6838)">
    <g
       transform="translate(186.00715,233.42386)"
       id="g9">
      <g
         id="g8">
        <path
           d="M 28.28125,-91.9375 V 0 H 7.078125 v -91.9375 z m 0,0"
           id="path7" />
      </g>
    </g>
  </g>
  <g
     fill="#ffffff"
     fill-opacity="1"
     id="g13"
     transform="translate(-38.239074,-106.6838)">
    <g
       transform="translate(214.29423,233.42386)"
       id="g12">
      <g
         id="g11">
        <path
           d="m 48.09375,-70.71875 c -13.210938,0 -19.8125,8.25 -19.8125,24.75 0,16.5 6.601562,24.75 19.8125,24.75 12.726562,0 19.09375,-8.25 19.09375,-24.75 0,-16.5 -6.367188,-24.75 -19.09375,-24.75 z m 0,-21.21875 c 26.863281,0 40.296875,15.324219 40.296875,45.96875 C 88.390625,-15.320312 74.957031,0 48.09375,0 20.75,0 7.078125,-15.320312 7.078125,-45.96875 7.078125,-76.613281 20.75,-91.9375 48.09375,-91.9375 Z m 4.3125,77.796875 h 24.75 l 10.609375,21.921875 -17.6875,9.890625 z m 0,0"
           id="path10" />
      </g>
    </g>
  </g>
  <g
     clip-path="url(#8b87eff7b8)"
     id="g14"
     transform="translate(-38.239074,-106.6838)">
    <path
       fill="#ffffff"
       d="m 203.39453,112.76953 c 0.35938,0.17578 0.65234,0.46875 0.82813,0.82813 l 2.75781,5.58203 6.16015,0.89453 c 0.98829,0.14453 1.67579,1.05469 1.54688,2.04297 l -0.004,0.0273 c -0.0547,0.39844 -0.24218,0.76563 -0.53125,1.04688 l -4.45703,4.34375 1.05078,6.13671 c 0.16797,0.98438 -0.48437,1.91797 -1.46093,2.10547 l -0.0273,0.004 c -0.39844,0.0664 -0.80469,0.004 -1.16015,-0.18359 l -5.51172,-2.89844 -5.51172,2.89844 c -0.88281,0.46484 -1.97266,0.13281 -2.44922,-0.73829 l -0.0156,-0.0273 c -0.1875,-0.35547 -0.25,-0.76172 -0.18359,-1.16016 l 1.05469,-6.13671 -4.46094,-4.34375 c -0.71484,-0.69922 -0.73437,-1.83594 -0.0508,-2.5625 l 0.0195,-0.0195 c 0.28125,-0.28907 0.64844,-0.47657 1.04297,-0.53516 l 6.16406,-0.89453 2.75391,-5.58203 c 0.44531,-0.90625 1.54297,-1.27735 2.44531,-0.82813 z m 0,0"
       fill-opacity="1"
       fill-rule="nonzero"
       id="path13" />
  </g>
  <g
     fill="#ffffff"
     fill-opacity="1"
     id="g17"
     transform="translate(-38.239074,-106.6838)">
    <g
       transform="translate(318.43539,165.05553)"
       id="g16">
      <g
         id="g15">
        <path
           d="M 5,0 V -12.890625 H 0.75 v -2.25 h 10.953125 v 2.25 H 7.34375 V 0 Z m 0,0"
           id="path14" />
      </g>
    </g>
  </g>
  <g
     fill="#ffffff"
     fill-opacity="1"
     id="g20"
     transform="translate(-38.239074,-106.6838)">
    <g
       transform="translate(316.44883,194.26337)"
       id="g19">
      <g
         id="g18">
        <path
           d="m 4.453125,-15.140625 v 6.46875 h 7.5625 v -6.46875 H 14.34375 V 0 h -2.328125 v -6.421875 h -7.5625 V 0 H 2.125 v -15.140625 z m 0,0"
           id="path17" />
      </g>
    </g>
  </g>
  <g
     fill="#ffffff"
     fill-opacity="1"
     id="g23"
     transform="translate(-38.239074,-106.6838)">
    <g
       transform="translate(313.89851,223.47121)"
       id="g22">
      <g
         id="g21">
        <path
           d="M 21.03125,-15.140625 16.203125,0 h -1.625 L 10.6875,-9.203125 6.921875,0 H 5.34375 L 0.515625,-15.140625 h 2.5 l 2.90625,9.46875 c 0.101563,0.34375 0.191406,0.679687 0.265625,1 0.082031,0.3125 0.15625,0.617187 0.21875,0.90625 0.070312,-0.289063 0.15625,-0.59375 0.25,-0.90625 0.101562,-0.320313 0.226562,-0.660156 0.375,-1.015625 l 2.734375,-6.84375 h 2.09375 L 14.5,-5.6875 c 0.15625,0.386719 0.285156,0.734375 0.390625,1.046875 0.101563,0.3125 0.1875,0.601563 0.25,0.859375 0.05078,-0.257812 0.113281,-0.546875 0.1875,-0.859375 0.08203,-0.320313 0.1875,-0.6875 0.3125,-1.09375 l 2.890625,-9.40625 z m 0,0"
           id="path20" />
      </g>
    </g>
  </g>
</svg>
