<svg xmlns="http://www.w3.org/2000/svg" xmlns:xlink="http://www.w3.org/1999/xlink" width="500" zoomAndPan="magnify" viewBox="0 0 375 374.999991" height="500" preserveAspectRatio="xMidYMid meet" version="1.0"><defs><g/><clipPath id="7a1fb4fec9"><path d="M 190.46875 112.578125 L 214.46875 112.578125 L 214.46875 135.820312 L 190.46875 135.820312 Z M 190.46875 112.578125 " clip-rule="nonzero"/></clipPath></defs><g fill="#000000" fill-opacity="1"><g transform="translate(37.500002, 233.423862)"><g><path d="M 53.03125 -91.9375 L 74.25 -91.9375 L 74.25 -35.359375 C 74.25 -11.785156 63.171875 0 41.015625 0 C 18.390625 0 7.078125 -11.785156 7.078125 -35.359375 L 7.078125 -91.9375 L 28.28125 -91.9375 L 28.28125 -35.359375 C 28.28125 -25.929688 32.523438 -21.21875 41.015625 -21.21875 C 49.023438 -21.21875 53.03125 -25.929688 53.03125 -35.359375 Z M 53.03125 -91.9375 "/></g></g></g><g fill="#000000" fill-opacity="1"><g transform="translate(111.753577, 233.423862)"><g><path d="M 53.03125 -56.578125 C 53.03125 -66.003906 49.023438 -70.71875 41.015625 -70.71875 C 32.523438 -70.71875 28.28125 -66.003906 28.28125 -56.578125 L 28.28125 0 L 7.078125 0 L 7.078125 -56.578125 C 7.078125 -80.148438 18.390625 -91.9375 41.015625 -91.9375 C 63.171875 -91.9375 74.25 -80.148438 74.25 -56.578125 L 74.25 0 L 53.03125 0 Z M 53.03125 -56.578125 "/></g></g></g><g fill="#000000" fill-opacity="1"><g transform="translate(186.007151, 233.423862)"><g><path d="M 28.28125 -91.9375 L 28.28125 0 L 7.078125 0 L 7.078125 -91.9375 Z M 28.28125 -91.9375 "/></g></g></g><g fill="#000000" fill-opacity="1"><g transform="translate(214.294227, 233.423862)"><g><path d="M 48.09375 -70.71875 C 34.882812 -70.71875 28.28125 -62.46875 28.28125 -45.96875 C 28.28125 -29.46875 34.882812 -21.21875 48.09375 -21.21875 C 60.820312 -21.21875 67.1875 -29.46875 67.1875 -45.96875 C 67.1875 -62.46875 60.820312 -70.71875 48.09375 -70.71875 Z M 48.09375 -91.9375 C 74.957031 -91.9375 88.390625 -76.613281 88.390625 -45.96875 C 88.390625 -15.320312 74.957031 0 48.09375 0 C 20.75 0 7.078125 -15.320312 7.078125 -45.96875 C 7.078125 -76.613281 20.75 -91.9375 48.09375 -91.9375 Z M 52.40625 -14.140625 L 77.15625 -14.140625 L 87.765625 7.78125 L 70.078125 17.671875 Z M 52.40625 -14.140625 "/></g></g></g><g clip-path="url(#7a1fb4fec9)"><path fill="#000000" d="M 203.269531 112.769531 C 203.625 112.945312 203.914062 113.238281 204.089844 113.597656 L 206.820312 119.183594 L 212.921875 120.078125 C 213.898438 120.222656 214.582031 121.132812 214.453125 122.121094 L 214.449219 122.152344 C 214.394531 122.546875 214.207031 122.914062 213.925781 123.195312 L 209.507812 127.542969 L 210.550781 133.683594 C 210.71875 134.667969 210.070312 135.601562 209.105469 135.789062 L 209.074219 135.792969 C 208.683594 135.859375 208.28125 135.796875 207.925781 135.609375 L 202.46875 132.710938 L 197.011719 135.609375 C 196.136719 136.074219 195.058594 135.742188 194.585938 134.871094 L 194.570312 134.84375 C 194.386719 134.488281 194.320312 134.078125 194.386719 133.683594 L 195.429688 127.542969 L 191.015625 123.195312 C 190.308594 122.5 190.285156 121.359375 190.960938 120.632812 L 190.984375 120.613281 C 191.261719 120.324219 191.625 120.136719 192.019531 120.078125 L 198.121094 119.183594 L 200.847656 113.597656 C 201.289062 112.695312 202.375 112.320312 203.269531 112.769531 Z M 203.269531 112.769531 " fill-opacity="1" fill-rule="nonzero"/></g><path fill="#000000" d="M 308.996094 227.390625 L 308.996094 147.390625 C 308.996094 144.183594 311.597656 141.582031 314.804688 141.582031 L 334.5625 141.582031 C 337.769531 141.582031 340.371094 144.183594 340.371094 147.390625 L 340.371094 227.390625 C 340.371094 230.601562 337.769531 233.203125 334.5625 233.203125 L 314.804688 233.203125 C 311.597656 233.203125 308.996094 230.601562 308.996094 227.390625 Z M 308.996094 227.390625 " fill-opacity="1" fill-rule="nonzero"/><g fill="#ffffff" fill-opacity="1"><g transform="translate(318.435389, 165.055528)"><g><path d="M 5 0 L 5 -12.890625 L 0.75 -12.890625 L 0.75 -15.140625 L 11.703125 -15.140625 L 11.703125 -12.890625 L 7.34375 -12.890625 L 7.34375 0 Z M 5 0 "/></g></g></g><g fill="#ffffff" fill-opacity="1"><g transform="translate(316.448826, 194.263371)"><g><path d="M 4.453125 -15.140625 L 4.453125 -8.671875 L 12.015625 -8.671875 L 12.015625 -15.140625 L 14.34375 -15.140625 L 14.34375 0 L 12.015625 0 L 12.015625 -6.421875 L 4.453125 -6.421875 L 4.453125 0 L 2.125 0 L 2.125 -15.140625 Z M 4.453125 -15.140625 "/></g></g></g><g fill="#ffffff" fill-opacity="1"><g transform="translate(313.898509, 223.471213)"><g><path d="M 21.03125 -15.140625 L 16.203125 0 L 14.578125 0 L 10.6875 -9.203125 L 6.921875 0 L 5.34375 0 L 0.515625 -15.140625 L 3.015625 -15.140625 L 5.921875 -5.671875 C 6.023438 -5.328125 6.113281 -4.992188 6.1875 -4.671875 C 6.269531 -4.359375 6.34375 -4.054688 6.40625 -3.765625 C 6.476562 -4.054688 6.5625 -4.359375 6.65625 -4.671875 C 6.757812 -4.992188 6.882812 -5.332031 7.03125 -5.6875 L 9.765625 -12.53125 L 11.859375 -12.53125 L 14.5 -5.6875 C 14.65625 -5.300781 14.785156 -4.953125 14.890625 -4.640625 C 14.992188 -4.328125 15.078125 -4.039062 15.140625 -3.78125 C 15.191406 -4.039062 15.253906 -4.328125 15.328125 -4.640625 C 15.410156 -4.960938 15.515625 -5.328125 15.640625 -5.734375 L 18.53125 -15.140625 Z M 21.03125 -15.140625 "/></g></g></g></svg>